
<svg version="1.1" id="Layer_1" width="204" height="184" xmlns="http://www.w3.org/2000/svg" xmlns:xlink="http://www.w3.org/1999/xlink" x="0px" y="0px"
	 viewBox="92 -82 204 184" enable-background="new 92 -82 204 184" xml:space="preserve">
<g>
	<path fill="#9AA094" d="M165,94c0,4.4-3.6,8-8,8h-57c-4.4,0-8-3.6-8-8V75c0-4.4,3.6-8,8-8h57c4.4,0,8,3.6,8,8V94z"/>
</g>
<g>
	<path fill="#E1E3DF" d="M165,86c0,4.4-3.6,8-8,8h-57c-4.4,0-8-3.6-8-8V67c0-4.4,3.6-8,8-8h57c4.4,0,8,3.6,8,8V86z"/>
</g>
<rect x="92" y="-82" fill="#FFFFFF" width="204" height="122"/>
<rect x="183" y="79" fill="#E1E3DF" width="96" height="4"/>
<rect x="183" y="69" fill="#E1E3DF" width="86" height="4"/>
<g>
	<path fill="#9AA094" d="M165.6-16.1c-6.6-6.5-9.5-13.6-9.5-19.9c0-10.8,7.2-18,18.2-18c10.2,0,13.7,4.7,19.7,11.6
		c6-6.8,9.5-11.6,19.7-11.6c10.9,0,18.2,7.2,18.2,18c0,6.3-2.9,13.4-9.4,19.9L194,12.1L165.6-16.1z"/>
</g>
</svg>
