<?xml version="1.0" encoding="utf-8"?>
<!-- Generator: Adobe Illustrator 19.0.0, SVG Export Plug-In . SVG Version: 6.00 Build 0)  -->
<svg version="1.1" id="Layer_1" xmlns="http://www.w3.org/2000/svg" xmlns:xlink="http://www.w3.org/1999/xlink" x="0px" y="0px"
	 viewBox="0 0 183.7 92.7" style="enable-background:new 0 0 183.7 92.7;" xml:space="preserve">
<style type="text/css">
	.st0{clip-path:url(#SVGID_2_);fill:#231F20;}
	.st1{clip-path:url(#SVGID_2_);}
	.st2{clip-path:url(#SVGID_4_);fill:#231F20;}
	.st3{clip-path:url(#SVGID_4_);fill:#006838;}
</style>
<g>
	<g>
		<defs>
			<rect id="SVGID_1_" x="-1.8" y="0" width="187" height="96.9"/>
		</defs>
		<clipPath id="SVGID_2_">
			<use xlink:href="#SVGID_1_"  style="overflow:visible;"/>
		</clipPath>
		
			<rect x="151.7" y="2.9" transform="matrix(0.9994 3.398683e-002 -3.398683e-002 0.9994 0.3536 -5.198)" class="st0" width="2.8" height="9.8"/>
		<rect x="145.4" y="3.4" transform="matrix(0.9843 -0.1763 0.1763 0.9843 0.8394 25.9766)" class="st0" width="2.5" height="9.8"/>
		<rect x="139.6" y="5.3" transform="matrix(0.9046 -0.4263 0.4263 0.9046 9.0983 60.9838)" class="st0" width="2.3" height="9.8"/>
		<rect x="134.7" y="8.5" transform="matrix(0.787 -0.617 0.617 0.787 20.6619 86.5737)" class="st0" width="2.1" height="9.8"/>
		
			<rect x="129.9" y="13.6" transform="matrix(0.5872 -0.8094 0.8094 0.5872 39.1057 113.5533)" class="st0" width="1.9" height="9.8"/>
		
			<rect x="126.9" y="19.6" transform="matrix(0.3305 -0.9438 0.9438 0.3305 62.3549 136.9351)" class="st0" width="1.7" height="9.8"/>
		
			<rect x="125.5" y="26.3" transform="matrix(0.1126 -0.9936 0.9936 0.1126 80.9523 153.1015)" class="st0" width="1.3" height="9.8"/>
		
			<rect x="126" y="32.8" transform="matrix(-0.1135 -0.9935 0.9935 -0.1135 103.4605 167.6621)" class="st0" width="1.1" height="9.8"/>
		
			<rect x="127.8" y="38.6" transform="matrix(-0.3679 -0.9299 0.9299 -0.3679 134.9622 178.791)" class="st0" width="0.9" height="9.8"/>
		
			<rect x="130.9" y="43.9" transform="matrix(-0.5678 -0.8232 0.8232 -0.5678 165.7712 184.6192)" class="st0" width="0.8" height="9.8"/>
		
			<rect x="135.7" y="48.6" transform="matrix(-0.7377 -0.6751 0.6751 -0.7377 200.2814 184.7015)" class="st0" width="0.6" height="9.8"/>
		
			<rect x="158.5" y="4.2" transform="matrix(0.9417 0.3365 -0.3365 0.9417 12.3922 -53.2739)" class="st0" width="2.8" height="9.8"/>
		
			<rect x="164.6" y="7.3" transform="matrix(0.8171 0.5765 -0.5765 0.8171 37.418 -93.4949)" class="st0" width="2.9" height="9.8"/>
		
			<rect x="169.3" y="11.6" transform="matrix(0.6645 0.7473 -0.7473 0.6645 69.6117 -122.1425)" class="st0" width="3" height="9.8"/>
		
			<rect x="173.2" y="17.4" transform="matrix(0.4374 0.8993 -0.8993 0.4374 118.2936 -144.5889)" class="st0" width="3.1" height="9.8"/>
		
			<rect x="175.2" y="24" transform="matrix(0.1805 0.9836 -0.9836 0.1805 173.3136 -150.2586)" class="st0" width="3.2" height="9.8"/>
		
			<rect x="175.5" y="30.5" transform="matrix(-7.206216e-002 0.9974 -0.9974 -7.206216e-002 225.1902 -138.71)" class="st0" width="3.2" height="9.8"/>
		
			<rect x="174" y="36.9" transform="matrix(-0.3325 0.9431 -0.9431 -0.3325 273.5824 -109.9796)" class="st0" width="3.3" height="9.8"/>
		
			<rect x="171.2" y="42.6" transform="matrix(-0.5629 0.8265 -0.8265 -0.5629 309.3967 -68.6081)" class="st0" width="3.4" height="9.8"/>
		
			<rect x="166.9" y="47.4" transform="matrix(-0.7445 0.6676 -0.6676 -0.7445 329.1252 -21.417)" class="st0" width="3.5" height="9.8"/>
		<rect x="3.4" y="59.4" class="st0" width="3.2" height="25.6"/>
		<g class="st1">
			<defs>
				<rect id="SVGID_3_" x="-2.8" y="-1" width="187" height="96.9"/>
			</defs>
			<clipPath id="SVGID_4_">
				<use xlink:href="#SVGID_3_"  style="overflow:visible;"/>
			</clipPath>
			<path class="st2" d="M26.7,75.1c0,6.4-4.5,9.3-8.7,9.3c-4.7,0-8.4-3.5-8.4-9c0-5.8,3.8-9.3,8.6-9.3
				C23.3,66.2,26.7,69.8,26.7,75.1 M12.8,75.3c0,3.8,2.2,6.7,5.3,6.7c3,0,5.3-2.8,5.3-6.8c0-3-1.5-6.7-5.2-6.7
				C14.5,68.5,12.8,72,12.8,75.3"/>
			<path class="st2" d="M45.7,66.6c-0.1,1.3-0.1,2.7-0.1,4.8v10.1c0,4-0.8,6.4-2.5,8c-1.7,1.6-4.1,2.1-6.3,2.1
				c-2.1,0-4.4-0.5-5.8-1.4l0.8-2.4c1.2,0.7,3,1.4,5.1,1.4c3.2,0,5.6-1.7,5.6-6.1V81h-0.1c-1,1.6-2.8,2.9-5.5,2.9
				c-4.3,0-7.4-3.7-7.4-8.5c0-5.9,3.9-9.3,7.8-9.3c3,0,4.7,1.6,5.4,3h0.1l0.1-2.6H45.7z M42.4,73.4c0-0.5,0-1-0.2-1.4
				c-0.6-1.8-2.1-3.3-4.4-3.3c-3,0-5.2,2.6-5.2,6.6c0,3.4,1.7,6.3,5.1,6.3c1.9,0,3.7-1.2,4.4-3.2c0.2-0.5,0.3-1.2,0.3-1.7V73.4z"/>
			<path class="st2" d="M54.1,61.7c0,1.1-0.8,1.9-2,1.9c-1.1,0-1.9-0.9-1.9-1.9c0-1.1,0.8-2,2-2C53.3,59.7,54.1,60.6,54.1,61.7
				 M50.6,66.6h3.2V84h-3.2V66.6z"/>
			<path class="st2" d="M58.6,80.8c0.9,0.6,2.6,1.3,4.2,1.3c2.3,0,3.4-1.2,3.4-2.6c0-1.5-0.9-2.3-3.2-3.2c-3.1-1.1-4.6-2.8-4.6-4.9
				c0-2.8,2.3-5.1,6-5.1c1.8,0,3.3,0.5,4.3,1.1l-0.8,2.3c-0.7-0.4-1.9-1-3.6-1c-1.9,0-2.9,1.1-2.9,2.4c0,1.4,1,2.1,3.3,3
				c3,1.2,4.6,2.7,4.6,5.3c0,3.1-2.4,5.2-6.5,5.2c-1.9,0-3.7-0.5-4.9-1.2L58.6,80.8z"/>
			<path class="st2" d="M77.1,61.6v5h4.5V69h-4.5v9.4c0,2.2,0.6,3.4,2.4,3.4c0.8,0,1.4-0.1,1.8-0.2l0.1,2.4
				c-0.6,0.3-1.6,0.4-2.8,0.4c-1.5,0-2.7-0.5-3.4-1.3c-0.9-0.9-1.2-2.5-1.2-4.5V69h-2.7v-2.4H74v-4.2L77.1,61.6z"/>
			<path class="st2" d="M88.7,61.7c0,1.1-0.8,1.9-2,1.9c-1.1,0-1.9-0.9-1.9-1.9c0-1.1,0.8-2,2-2C87.9,59.7,88.7,60.6,88.7,61.7
				 M85.2,66.6h3.2V84h-3.2V66.6z"/>
			<path class="st2" d="M106,83.3c-0.8,0.4-2.7,1-5,1c-5.3,0-8.7-3.6-8.7-8.9c0-5.4,3.7-9.3,9.4-9.3c1.9,0,3.5,0.5,4.4,0.9l-0.7,2.4
				c-0.8-0.4-1.9-0.8-3.7-0.8c-4,0-6.2,3-6.2,6.6c0,4,2.6,6.5,6,6.5c1.8,0,3-0.5,3.9-0.9L106,83.3z"/>
			<path class="st2" d="M109.3,80.8c0.9,0.6,2.6,1.3,4.2,1.3c2.3,0,3.4-1.2,3.4-2.6c0-1.5-0.9-2.3-3.2-3.2c-3.1-1.1-4.6-2.8-4.6-4.9
				c0-2.8,2.3-5.1,6-5.1c1.8,0,3.3,0.5,4.3,1.1l-0.8,2.3c-0.7-0.4-1.9-1-3.6-1c-1.9,0-2.9,1.1-2.9,2.4c0,1.4,1,2.1,3.3,3
				c3,1.2,4.6,2.7,4.6,5.3c0,3.1-2.4,5.2-6.5,5.2c-1.9,0-3.7-0.5-4.9-1.2L109.3,80.8z"/>
			<path class="st3" d="M130.6,72c0-2.1-0.1-3.9-0.1-5.6h4.1l0.3,2h0.1c0.7-1.4,2.1-2.3,3.7-2.3c3.9,0,5.5,4.2,5.5,9.1
				c0,6.3-2.8,9.1-5.7,9.1c-1.4,0-2.4-0.9-2.9-1.7h-0.1v8.3h-4.7V72z M135.3,77.5c0,0.6,0.1,1.2,0.3,1.5c0.4,1.1,1,1.4,1.5,1.4
				c1.7,0,2.2-2.4,2.2-5.2c0-3.3-0.8-5.1-2.2-5.1c-0.7,0-1.4,0.7-1.6,1.5c-0.2,0.4-0.2,0.8-0.2,1.3V77.5z"/>
			<rect x="146.7" y="59.1" class="st3" width="4.7" height="24.9"/>
			<path class="st3" d="M167.7,78.6c0,1.9,0.1,3.7,0.1,5.4h-4.1l-0.3-1.9h-0.1c-0.8,1.2-2.3,2.2-4.1,2.2c-3.3,0-4.7-2.5-4.7-7.2
				V66.4h4.8v10.1c0,2.3,0.4,3.8,1.8,3.8c0.8,0,1.3-0.6,1.5-1.2c0.2-0.4,0.3-0.9,0.3-1.5V66.4h4.7V78.6z"/>
			<path class="st3" d="M171,79.7c0.7,0.4,2,0.9,3.2,0.9c1.2,0,1.9-0.5,1.9-1.6c0-0.9-0.5-1.5-2.1-2.4c-2.9-1.6-3.6-3.5-3.6-5.1
				c0-3.2,2.3-5.5,5.8-5.5c1.5,0,2.6,0.4,3.6,0.8l-0.8,3.5c-0.7-0.4-1.5-0.7-2.4-0.7c-1.2,0-1.8,0.7-1.8,1.5s0.4,1.2,2.1,2.2
				c2.6,1.5,3.6,3.3,3.6,5.3c0,3.6-2.6,5.5-6.2,5.5c-1.5,0-3.2-0.4-4-1L171,79.7z"/>
		</g>
	</g>
</g>
</svg>
