<?xml version="1.0" encoding="utf-8"?>
<!-- Generator: Adobe Illustrator 19.0.0, SVG Export Plug-In . SVG Version: 6.00 Build 0)  -->
<svg version="1.1" id="Layer_1" xmlns="http://www.w3.org/2000/svg" xmlns:xlink="http://www.w3.org/1999/xlink" x="0px" y="0px"
	 viewBox="-377 227.9 203.1 107.1" style="enable-background:new -377 227.9 203.1 107.1;" xml:space="preserve">
<style type="text/css">
	.st0{fill:#FCFCFC;}
	.st1{fill:#FFFFFF;}
	.st2{fill:#FCFAFB;}
	.st3{font-family:'ArialMT';}
	.st4{font-size:22.9126px;}
</style>
<g id="XMLID_4_">
	<g id="XMLID_70_">
		<path id="XMLID_67_" class="st0" d="M-347.1,312.7c0,7.1-4.9,10.1-9.5,10.1c-5.2,0-9.2-3.8-9.2-9.8c0-6.4,4.2-10.1,9.5-10.1
			C-350.8,302.9-347.1,306.8-347.1,312.7 M-362.3,312.9c0,4.2,2.4,7.3,5.8,7.3c3.3,0,5.8-3.1,5.8-7.4c0-3.2-1.6-7.3-5.7-7.3
			S-362.3,309.2-362.3,312.9"/>
		<path id="XMLID_64_" class="st0" d="M-326.3,303.3c-0.1,1.4-0.2,2.9-0.2,5.2v11.1c0,4.4-0.9,7.1-2.7,8.7c-1.9,1.7-4.5,2.3-6.9,2.3
			c-2.3,0-4.8-0.6-6.4-1.6l0.9-2.6c1.3,0.8,3.2,1.5,5.6,1.5c3.6,0,6.2-1.9,6.2-6.7v-2.1h-0.1c-1.1,1.8-3.1,3.2-6.1,3.2
			c-4.7,0-8.1-4-8.1-9.3c0-6.5,4.2-10.1,8.6-10.1c3.3,0,5.1,1.7,6,3.3h0.1l0.2-2.9H-326.3z M-329.9,310.8c0-0.6,0-1.1-0.2-1.6
			c-0.6-2-2.3-3.7-4.9-3.7c-3.3,0-5.7,2.8-5.7,7.2c0,3.7,1.9,6.9,5.6,6.9c2.1,0,4.1-1.3,4.8-3.6c0.2-0.6,0.3-1.3,0.3-1.9v-3.3
			H-329.9z"/>
		<path id="XMLID_61_" class="st0" d="M-317,297.9c0,1.2-0.8,2.1-2.2,2.1c-1.2,0-2.1-0.9-2.1-2.1s0.9-2.2,2.2-2.2
			C-317.9,295.8-317,296.7-317,297.9 M-320.9,303.3h3.5v19.1h-3.5V303.3z"/>
		<path id="XMLID_60_" class="st0" d="M-312.1,318.8c1,0.7,2.8,1.4,4.6,1.4c2.5,0,3.7-1.3,3.7-2.8c0-1.7-1-2.6-3.6-3.5
			c-3.4-1.2-5.1-3.1-5.1-5.4c0-3.1,2.5-5.6,6.6-5.6c1.9,0,3.6,0.6,4.7,1.2l-0.8,2.5c-0.7-0.5-2.1-1.1-3.9-1.1
			c-2.1,0-3.2,1.2-3.2,2.6c0,1.6,1.1,2.3,3.6,3.2c3.3,1.3,5,2.9,5,5.8c0,3.4-2.6,5.7-7.1,5.7c-2.1,0-4-0.5-5.4-1.3L-312.1,318.8z"/>
		<path id="XMLID_59_" class="st0" d="M-291.9,297.8v5.5h5v2.6h-5v10.3c0,2.4,0.7,3.7,2.6,3.7c0.9,0,1.6-0.1,2-0.2l0.2,2.6
			c-0.7,0.3-1.7,0.5-3.1,0.5c-1.6,0-2.9-0.5-3.7-1.5c-1-1-1.3-2.7-1.3-5v-10.4h-3v-2.6h3v-4.6L-291.9,297.8z"/>
		<path id="XMLID_56_" class="st0" d="M-279.1,297.9c0,1.2-0.8,2.1-2.2,2.1c-1.2,0-2.1-0.9-2.1-2.1s0.9-2.2,2.2-2.2
			C-279.9,295.8-279.1,296.7-279.1,297.9 M-283,303.3h3.5v19.1h-3.5V303.3z"/>
		<path id="XMLID_55_" class="st0" d="M-260.1,321.7c-0.9,0.5-2.9,1.1-5.5,1.1c-5.8,0-9.5-3.9-9.5-9.7c0-5.9,4-10.1,10.3-10.1
			c2.1,0,3.9,0.5,4.8,1l-0.8,2.7c-0.8-0.5-2.1-0.9-4-0.9c-4.4,0-6.7,3.2-6.7,7.2c0,4.4,2.8,7.1,6.6,7.1c2,0,3.3-0.5,4.3-0.9
			L-260.1,321.7z"/>
		<path id="XMLID_54_" class="st0" d="M-256.5,318.8c1,0.7,2.8,1.4,4.6,1.4c2.5,0,3.7-1.3,3.7-2.8c0-1.7-1-2.6-3.6-3.5
			c-3.4-1.2-5.1-3.1-5.1-5.4c0-3.1,2.5-5.6,6.6-5.6c1.9,0,3.6,0.6,4.7,1.2l-0.9,2.5c-0.7-0.5-2.1-1.1-3.9-1.1
			c-2.1,0-3.2,1.2-3.2,2.6c0,1.6,1.1,2.3,3.6,3.2c3.3,1.3,5,2.9,5,5.8c0,3.4-2.6,5.7-7.1,5.7c-2.1,0-4-0.5-5.4-1.3L-256.5,318.8z"/>
		<path id="XMLID_51_" class="st0" d="M-233.2,309.2c0-2.3-0.1-4.3-0.2-6.1h4.5l0.3,2.2h0.1c0.8-1.6,2.2-2.5,4-2.5
			c4.3,0,6,4.6,6,9.9c0,6.9-3,10-6.3,10c-1.6,0-2.6-1-3.2-1.9h0v9.2h-5.2V309.2z M-228,315.3c0,0.7,0.1,1.3,0.3,1.7
			c0.4,1.2,1.1,1.5,1.7,1.5c1.8,0,2.4-2.7,2.4-5.7c0-3.7-0.9-5.6-2.4-5.6c-0.8,0-1.5,0.7-1.7,1.7c-0.2,0.4-0.2,0.9-0.2,1.4v5H-228z"
			/>
		<rect id="XMLID_50_" x="-215.5" y="295.1" class="st0" width="5.2" height="27.3"/>
		<path id="XMLID_49_" class="st0" d="M-192.5,316.5c0,2.1,0.1,4.1,0.2,5.9h-4.5l-0.3-2.1h-0.1c-0.9,1.3-2.5,2.4-4.5,2.4
			c-3.7,0-5.2-2.7-5.2-7.9v-11.7h5.2v11.1c0,2.5,0.5,4.1,1.9,4.1c0.9,0,1.4-0.7,1.7-1.3c0.2-0.4,0.3-1,0.3-1.7v-12.2h5.2v13.4
			H-192.5z"/>
		<path id="XMLID_48_" class="st0" d="M-188.9,317.7c0.7,0.5,2.2,1,3.5,1s2.1-0.6,2.1-1.7c0-1-0.6-1.6-2.2-2.6
			c-3.2-1.8-3.9-3.8-3.9-5.6c0-3.5,2.5-6.1,6.4-6.1c1.6,0,2.9,0.4,3.9,0.9l-0.9,3.8c-0.7-0.4-1.7-0.8-2.7-0.8
			c-1.3,0-1.9,0.8-1.9,1.7c0,0.9,0.4,1.3,2.2,2.4c2.8,1.6,3.9,3.6,3.9,5.8c0,3.9-2.8,6.1-6.8,6.1c-1.6,0-3.5-0.4-4.4-1.1
			L-188.9,317.7z"/>
		<rect id="XMLID_71_" x="-372.7" y="293.1" class="st0" width="3.5" height="28"/>
		
			<rect id="XMLID_91_" x="-210.3" y="232.4" transform="matrix(-0.9994 -3.398759e-002 3.398759e-002 -0.9994 -425.5689 468.2658)" class="st1" width="3" height="10.7"/>
		
			<rect id="XMLID_90_" x="-217.3" y="232.9" transform="matrix(-0.9843 0.1763 -0.1763 -0.9843 -386.5149 510.8604)" class="st1" width="2.7" height="10.7"/>
		
			<rect id="XMLID_89_" x="-223.6" y="235" transform="matrix(-0.9046 0.4263 -0.4263 -0.9046 -320.9731 552.592)" class="st1" width="2.5" height="10.7"/>
		
			<rect id="XMLID_88_" x="-229" y="238.5" transform="matrix(-0.787 0.617 -0.617 -0.787 -256.6811 576.311)" class="st1" width="2.3" height="10.7"/>
		
			<rect id="XMLID_87_" x="-234.2" y="244" transform="matrix(-0.5872 0.8094 -0.8094 -0.5872 -168.2353 584.5651)" class="st1" width="2.1" height="10.7"/>
		
			<rect id="XMLID_86_" x="-237.5" y="250.7" transform="matrix(-0.3305 0.9438 -0.9438 -0.3305 -73.1787 563.9654)" class="st1" width="1.8" height="10.7"/>
		
			<rect id="XMLID_85_" x="-239" y="258" transform="matrix(-0.1126 0.9936 -0.9936 -0.1126 -3.3405 529.7711)" class="st1" width="1.5" height="10.7"/>
		
			<rect id="XMLID_84_" x="-238.5" y="265.1" transform="matrix(0.1135 0.9935 -0.9935 0.1135 57.8052 476.171)" class="st1" width="1.2" height="10.7"/>
		
			<rect id="XMLID_83_" x="-236.6" y="271.5" transform="matrix(0.3679 0.9299 -0.9299 0.3679 108.2456 394.522)" class="st1" width="1" height="10.7"/>
		
			<rect id="XMLID_82_" x="-233.1" y="277.3" transform="matrix(0.5678 0.8232 -0.8232 0.5678 132.1674 313.6599)" class="st1" width="0.9" height="10.7"/>
		
			<rect id="XMLID_81_" x="-227.8" y="282.5" transform="matrix(0.7377 0.6751 -0.6751 0.7377 134.6415 229.059)" class="st1" width="0.7" height="10.7"/>
		
			<rect id="XMLID_80_" x="-202.9" y="233.8" transform="matrix(-0.9417 -0.3365 0.3365 -0.9417 -471.4088 396.5902)" class="st1" width="3.1" height="10.7"/>
		
			<rect id="XMLID_79_" x="-196.2" y="237.2" transform="matrix(-0.8171 -0.5765 0.5765 -0.8171 -493.3981 328.5427)" class="st1" width="3.2" height="10.7"/>
		
			<rect id="XMLID_78_" x="-191" y="241.9" transform="matrix(-0.6645 -0.7473 0.7473 -0.6645 -499.9619 269.9925)" class="st1" width="3.3" height="10.7"/>
		
			<rect id="XMLID_77_" x="-186.8" y="248.2" transform="matrix(-0.4374 -0.8993 0.8993 -0.4374 -494.0585 198.017)" class="st1" width="3.4" height="10.7"/>
		
			<rect id="XMLID_76_" x="-184.5" y="255.5" transform="matrix(-0.1805 -0.9836 0.9836 -0.1805 -472.342 128.1575)" class="st1" width="3.5" height="10.7"/>
		
			<rect id="XMLID_75_" x="-184.2" y="262.6" transform="matrix(7.206217e-002 -0.9974 0.9974 7.206217e-002 -436.5489 66.7261)" class="st1" width="3.5" height="10.7"/>
		
			<rect id="XMLID_74_" x="-185.8" y="269.7" transform="matrix(0.3325 -0.9431 0.9431 0.3325 -382.1853 10.0309)" class="st1" width="3.6" height="10.7"/>
		
			<rect id="XMLID_73_" x="-189" y="275.9" transform="matrix(0.5629 -0.8265 0.8265 0.5629 -314.2399 -31.7351)" class="st1" width="3.7" height="10.7"/>
		
			<rect id="XMLID_72_" x="-193.6" y="281.1" transform="matrix(0.7445 -0.6676 0.6676 0.7445 -240.2205 -54.7752)" class="st1" width="3.9" height="10.7"/>
	</g>
	<text id="XMLID_94_" transform="matrix(0.9103 0 0 1 -323.082 286.6256)" class="st2 st3 st4">training</text>
</g>
</svg>
