<?xml version="1.0" encoding="utf-8"?>
<!-- Generator: Adobe Illustrator 19.0.0, SVG Export Plug-In . SVG Version: 6.00 Build 0)  -->
<svg version="1.1" id="Layer_1" xmlns="http://www.w3.org/2000/svg" xmlns:xlink="http://www.w3.org/1999/xlink" x="0px" y="0px"
	 viewBox="0 0 385.3 232.7" style="enable-background:new 0 0 385.3 232.7;" xml:space="preserve">
<style type="text/css">
	.st0{fill:#231F20;}
	.st1{fill:#006838;}
	.st2{fill:#231F20;stroke:#231F20;stroke-miterlimit:10;}
	.st3{font-family:'MyriadHebrew-Regular';}
	.st4{font-size:13.8608px;}
</style>
<g>
	
		<rect x="239.4" y="62.6" transform="matrix(0.9994 3.398683e-002 -3.398683e-002 0.9994 2.4321 -8.143)" class="st0" width="2.8" height="9.8"/>
	<rect x="233" y="63.1" transform="matrix(0.9843 -0.1763 0.1763 0.9843 -8.3062 42.3656)" class="st0" width="2.5" height="9.8"/>
	<rect x="227.3" y="65" transform="matrix(0.9046 -0.4263 0.4263 0.9046 -7.9729 104.0513)" class="st0" width="2.3" height="9.8"/>
	<rect x="222.3" y="68.2" transform="matrix(0.787 -0.617 0.617 0.787 2.5237 153.3736)" class="st0" width="2.1" height="9.8"/>
	
		<rect x="217.6" y="73.2" transform="matrix(0.5872 -0.8094 0.8094 0.5872 26.9968 209.1422)" class="st0" width="1.9" height="9.8"/>
	
		<rect x="214.5" y="79.3" transform="matrix(0.3305 -0.9438 0.9438 0.3305 64.7349 259.6235)" class="st0" width="1.7" height="9.8"/>
	<rect x="213.2" y="86" transform="matrix(0.1126 -0.9936 0.9936 0.1126 99.457 293.1559)" class="st0" width="1.3" height="9.8"/>
	
		<rect x="213.6" y="92.5" transform="matrix(-0.1135 -0.9935 0.9935 -0.1135 141.7934 321.1996)" class="st0" width="1.1" height="9.8"/>
	
		<rect x="215.4" y="98.3" transform="matrix(-0.3679 -0.9299 0.9299 -0.3679 199.3974 341.9268)" class="st0" width="0.9" height="9.8"/>
	
		<rect x="218.6" y="103.6" transform="matrix(-0.5678 -0.8232 0.8232 -0.5678 254.1011 350.3288)" class="st0" width="0.8" height="9.8"/>
	
		<rect x="223.4" y="108.2" transform="matrix(-0.7377 -0.6751 0.6751 -0.7377 312.3419 347.5694)" class="st0" width="0.6" height="9.8"/>
	
		<rect x="246.2" y="63.9" transform="matrix(0.9417 0.3365 -0.3365 0.9417 37.5794 -79.292)" class="st0" width="2.8" height="9.8"/>
	
		<rect x="252.3" y="67" transform="matrix(0.8171 0.5765 -0.5765 0.8171 87.8511 -133.1219)" class="st0" width="2.9" height="9.8"/>
	<rect x="257" y="71.2" transform="matrix(0.6645 0.7473 -0.7473 0.6645 143.6106 -167.6364)" class="st0" width="3" height="9.8"/>
	
		<rect x="260.8" y="77" transform="matrix(0.4374 0.8993 -0.8993 0.4374 221.2721 -189.856)" class="st0" width="3.1" height="9.8"/>
	
		<rect x="262.9" y="83.7" transform="matrix(0.1805 0.9836 -0.9836 0.1805 303.843 -187.5885)" class="st0" width="3.2" height="9.8"/>
	
		<rect x="263.2" y="90.2" transform="matrix(-7.206216e-002 0.9974 -0.9974 -7.206216e-002 378.6859 -162.1824)" class="st0" width="3.2" height="9.8"/>
	
		<rect x="261.7" y="96.6" transform="matrix(-0.3325 0.9431 -0.9431 -0.3325 446.6714 -113.1506)" class="st0" width="3.3" height="9.8"/>
	
		<rect x="258.8" y="102.3" transform="matrix(-0.5629 0.8265 -0.8265 -0.5629 495.7262 -47.8156)" class="st0" width="3.4" height="9.8"/>
	
		<rect x="254.6" y="107.1" transform="matrix(-0.7445 0.6676 -0.6676 -0.7445 521.8948 24.1457)" class="st0" width="3.5" height="9.8"/>
</g>
<g>
	<rect x="91.1" y="119.1" class="st0" width="3.2" height="25.6"/>
	<path class="st0" d="M114.3,134.8c0,6.4-4.5,9.3-8.7,9.3c-4.7,0-8.4-3.5-8.4-9c0-5.8,3.8-9.3,8.6-9.3
		C110.9,125.8,114.3,129.5,114.3,134.8 M100.5,135c0,3.8,2.2,6.7,5.3,6.7c3,0,5.3-2.8,5.3-6.8c0-3-1.5-6.7-5.2-6.7
		C102.1,128.2,100.5,131.7,100.5,135"/>
	<path class="st0" d="M133.3,126.2c-0.1,1.3-0.1,2.7-0.1,4.8v10.1c0,4-0.8,6.4-2.5,8c-1.7,1.6-4.1,2.1-6.3,2.1
		c-2.1,0-4.4-0.5-5.8-1.4l0.8-2.4c1.2,0.7,3,1.4,5.1,1.4c3.2,0,5.6-1.7,5.6-6.1v-1.9H130c-1,1.6-2.8,2.9-5.5,2.9
		c-4.3,0-7.4-3.7-7.4-8.5c0-5.9,3.9-9.2,7.8-9.2c3,0,4.7,1.6,5.4,3h0.1l0.1-2.6H133.3z M130.1,133.1c0-0.5,0-1-0.2-1.4
		c-0.6-1.8-2.1-3.3-4.4-3.3c-3,0-5.2,2.6-5.2,6.6c0,3.4,1.7,6.3,5.1,6.3c1.9,0,3.7-1.2,4.4-3.2c0.2-0.5,0.3-1.2,0.3-1.7V133.1z"/>
	<path class="st0" d="M141.8,121.3c0,1.1-0.8,1.9-2,1.9c-1.1,0-1.9-0.9-1.9-1.9c0-1.1,0.8-2,2-2C141,119.4,141.8,120.2,141.8,121.3
		 M138.2,126.2h3.2v17.4h-3.2V126.2z"/>
	<path class="st0" d="M146.2,140.4c0.9,0.6,2.6,1.3,4.2,1.3c2.3,0,3.4-1.2,3.4-2.6c0-1.5-0.9-2.3-3.2-3.2c-3.1-1.1-4.6-2.8-4.6-4.9
		c0-2.8,2.3-5.1,6-5.1c1.8,0,3.3,0.5,4.3,1.1l-0.8,2.3c-0.7-0.4-1.9-1-3.6-1c-1.9,0-2.9,1.1-2.9,2.4c0,1.4,1,2.1,3.3,3
		c3,1.2,4.6,2.7,4.6,5.3c0,3.1-2.4,5.2-6.5,5.2c-1.9,0-3.7-0.5-4.9-1.2L146.2,140.4z"/>
	<path class="st0" d="M164.7,121.2v5h4.5v2.4h-4.5v9.4c0,2.2,0.6,3.4,2.4,3.4c0.8,0,1.4-0.1,1.8-0.2l0.1,2.4
		c-0.6,0.3-1.6,0.4-2.8,0.4c-1.5,0-2.7-0.5-3.4-1.3c-0.9-0.9-1.2-2.5-1.2-4.5v-9.5h-2.7v-2.4h2.7v-4.2L164.7,121.2z"/>
	<path class="st0" d="M176.4,121.3c0,1.1-0.8,1.9-2,1.9c-1.1,0-1.9-0.9-1.9-1.9c0-1.1,0.8-2,2-2
		C175.6,119.4,176.4,120.2,176.4,121.3 M172.8,126.2h3.2v17.4h-3.2V126.2z"/>
	<path class="st0" d="M193.7,143c-0.8,0.4-2.7,1-5,1c-5.3,0-8.7-3.6-8.7-8.9c0-5.4,3.7-9.3,9.4-9.3c1.9,0,3.5,0.5,4.4,0.9l-0.7,2.4
		c-0.8-0.4-1.9-0.8-3.7-0.8c-4,0-6.2,3-6.2,6.6c0,4,2.6,6.5,6,6.5c1.8,0,3-0.5,3.9-0.9L193.7,143z"/>
	<path class="st0" d="M197,140.4c0.9,0.6,2.6,1.3,4.2,1.3c2.3,0,3.4-1.2,3.4-2.6c0-1.5-0.9-2.3-3.2-3.2c-3.1-1.1-4.6-2.8-4.6-4.9
		c0-2.8,2.3-5.1,6-5.1c1.8,0,3.3,0.5,4.3,1.1l-0.8,2.3c-0.7-0.4-1.9-1-3.6-1c-1.9,0-2.9,1.1-2.9,2.4c0,1.4,1,2.1,3.3,3
		c3,1.2,4.6,2.7,4.6,5.3c0,3.1-2.4,5.2-6.5,5.2c-1.9,0-3.7-0.5-4.9-1.2L197,140.4z"/>
</g>
<g>
	<path class="st1" d="M218.3,131.6c0-2.1-0.1-3.9-0.1-5.6h4.1l0.3,2h0.1c0.7-1.4,2.1-2.3,3.7-2.3c3.9,0,5.5,4.2,5.5,9.1
		c0,6.3-2.8,9.1-5.7,9.1c-1.4,0-2.4-0.9-2.9-1.7H223v8.4h-4.7V131.6z M223,137.2c0,0.6,0.1,1.2,0.3,1.5c0.4,1.1,1,1.4,1.5,1.4
		c1.7,0,2.2-2.4,2.2-5.2c0-3.3-0.8-5.1-2.2-5.1c-0.7,0-1.4,0.7-1.6,1.5c-0.2,0.4-0.2,0.8-0.2,1.3V137.2z"/>
	<rect x="234.4" y="118.7" class="st1" width="4.7" height="24.9"/>
	<path class="st1" d="M255.4,138.3c0,1.9,0.1,3.7,0.1,5.4h-4.1l-0.3-1.9h-0.1c-0.8,1.2-2.3,2.2-4.1,2.2c-3.3,0-4.7-2.5-4.7-7.2
		v-10.7h4.8v10.2c0,2.3,0.4,3.8,1.8,3.8c0.8,0,1.3-0.6,1.5-1.2c0.2-0.4,0.3-0.9,0.3-1.5v-11.2h4.7V138.3z"/>
	<path class="st1" d="M258.6,139.4c0.7,0.4,2,0.9,3.2,0.9c1.2,0,1.9-0.5,1.9-1.6c0-0.9-0.5-1.5-2.1-2.4c-2.9-1.6-3.6-3.5-3.6-5.1
		c0-3.2,2.3-5.5,5.8-5.5c1.5,0,2.6,0.4,3.6,0.8l-0.8,3.5c-0.7-0.4-1.5-0.7-2.4-0.7c-1.2,0-1.8,0.7-1.8,1.5c0,0.8,0.4,1.2,2.1,2.2
		c2.6,1.5,3.6,3.3,3.6,5.3c0,3.6-2.6,5.5-6.2,5.5c-1.5,0-3.2-0.4-4-1L258.6,139.4z"/>
</g>
<g>
	<text transform="matrix(0.9688 0 0 1 270.4062 143.6439)" class="st2 st3 st4">training</text>
</g>
</svg>
