
<!DOCTYPE svg PUBLIC "-//W3C//DTD SVG 1.1//EN" "http://www.w3.org/Graphics/SVG/1.1/DTD/svg11.dtd">
<svg version="1.1" id="Layer_1" xmlns="http://www.w3.org/2000/svg" xmlns:xlink="http://www.w3.org/1999/xlink" x="0px" y="0px"
	 width="236px" height="154px" viewBox="0 0 236 154" enable-background="new 0 0 236 154" xml:space="preserve">
<rect fill="#FFFFFF" width="236" height="154"/>
<rect x="84" y="12" fill="#E1E3DF" width="136" height="18"/>
<rect x="15" y="12" fill="#9AA094" width="61" height="18"/>
<rect x="15" y="51" fill="#E1E3DF" width="188" height="4"/>
<rect x="15" y="61" fill="#E1E3DF" width="182" height="4"/>
<rect x="15" y="71" fill="#E1E3DF" width="142" height="4"/>
<rect x="15" y="41" fill="#E1E3DF" width="182" height="4"/>
<g>
	<rect x="15" y="86" fill="#E1E3DF" width="56" height="24"/>
	<rect x="15" y="115" fill="#E1E3DF" width="45" height="2"/>
	<rect x="15" y="121" fill="#E1E3DF" width="52" height="2"/>
	<rect x="15" y="128" fill="#ADB2A8" width="29" height="8"/>
</g>
<g>
	<rect x="89" y="86" fill="#E1E3DF" width="56" height="24"/>
	<rect x="89" y="115" fill="#E1E3DF" width="45" height="2"/>
	<rect x="89" y="121" fill="#E1E3DF" width="52" height="2"/>
	<rect x="89" y="128" fill="#ADB2A8" width="29" height="8"/>
</g>
<g>
	<rect x="162" y="86" fill="#E1E3DF" width="56" height="24"/>
	<rect x="162" y="115" fill="#E1E3DF" width="45" height="2"/>
	<rect x="162" y="121" fill="#E1E3DF" width="52" height="2"/>
	<rect x="162" y="128" fill="#ADB2A8" width="29" height="8"/>
</g>
</svg>
