
<svg version="1.1" id="Layer_1" xmlns="http://www.w3.org/2000/svg" xmlns:xlink="http://www.w3.org/1999/xlink" x="0px" y="0px"
	 width="236px" height="154px" viewBox="0 0 236 154" enable-background="new 0 0 236 154" xml:space="preserve">
<rect fill="#FFFFFF" width="236" height="154"/>
<rect fill="#9AA094" width="118" height="154"/>
<rect x="29" y="25" fill="#FFFFFF" width="51" height="7"/>
<rect x="29" y="38" fill="#FFFFFF" width="51" height="7"/>
<rect x="29" y="51" fill="#FFFFFF" width="51" height="7"/>
<rect x="29" y="64" fill="#FFFFFF" width="51" height="7"/>
<rect x="16" y="25" fill="#E1E3DF" width="7" height="7"/>
<rect x="16" y="38" fill="#E1E3DF" width="7" height="7"/>
<rect x="16" y="51" fill="#E1E3DF" width="7" height="7"/>
<rect x="16" y="64" fill="#E1E3DF" width="7" height="7"/>
<rect x="132" y="15" fill="#E1E3DF" width="90" height="40"/>
<rect x="132" y="60" fill="#E1E3DF" width="21" height="40"/>
<rect x="158" y="60" fill="#E1E3DF" width="64" height="78"/>
<polygon fill="#9AA094" points="222,39 198,15 222,15 "/>
<rect x="165" y="76" fill="#9AA094" width="42" height="3"/>
<rect x="165" y="84" fill="#9AA094" width="47" height="3"/>
<rect x="165" y="92" fill="#9AA094" width="37" height="3"/>
<rect x="165" y="68" fill="#9AA094" width="47" height="3"/>
<rect x="165" y="108" fill="#9AA094" width="42" height="3"/>
<rect x="165" y="116" fill="#9AA094" width="47" height="3"/>
<rect x="165" y="124" fill="#9AA094" width="37" height="3"/>
<rect x="165" y="100" fill="#9AA094" width="47" height="3"/>
</svg>
